<svg id="Layer_1" data-name="Layer 1" xmlns="http://www.w3.org/2000/svg" viewBox="0 0 220.61 232.65"><title>circle</title><path d="M249.6,344.26q0-11.17,0-22.34c.75-3.57,1.51-7.14,2.24-10.71,7.91-38.58,32-63.36,67.79-76.91,17.23-6.52,35.28-11.07,53.23-15.41,5.83-1.41,13.43-1.15,18.66,1.47,43.08,21.54,67.84,57,76.83,104,4.24,22.14.38,43.87-3.24,65.59-2.29,13.75-8.42,25.72-18.8,35.08-29.36,26.46-63.73,30.91-100.38,20.57-11.74-3.31-22.16-11.08-33.57-15.87-22.52-9.45-39.84-24.6-50-46.64C256.69,370.76,253.76,357.23,249.6,344.26Zm189.69,17.42c-.44-20-3.87-38.73-11.69-56.39C419.69,287.44,410,271,391.89,261c-6.88-3.79-12.48-9.84-19-14.31-2.77-1.89-6.73-3.73-9.76-3.24-15.92,2.59-31.72,5.88-47.53,9.1-1.92.39-4.34,1.36-5.33,2.85-13.52,20.26-31.73,37.35-29.66,66,1.68,23.36,6.65,43.79,22.7,60.82,26.35,28,60.11,41,97.23,45.75,10.6,1.35,20.92-1.7,26.55-14.06A136,136,0,0,0,439.29,361.68Z" transform="translate(-249.6 -218.04)"/></svg>