<svg id="Layer_1" data-name="Layer 1" xmlns="http://www.w3.org/2000/svg" viewBox="0 0 259.95 235.81"><title>x</title><path d="M671.41,372.23c-39.2-39.4-77.95-71.71-124.19-95.21,9.09-6.09,17.7-11.37,25.72-17.43,4.19-3.16,6.77-.76,9.81,1,36.76,21.75,69.75,48.37,100.51,77.88,2.3,2.2,4.63,4.37,7.66,7.23,7-7.74,14.07-15.19,20.67-23,10.76-12.81,22-25.33,31.56-39S765,261,781.73,257.11l5.66,6.6-81.89,95.92C722.94,377.7,740.58,396,758.3,414.3,773.47,429.93,788.62,445.59,804,461c4.23,4.23,4.27,6.81-.43,10.75-13,10.86-25.45,11.83-37.61.06-10.82-10.48-19.26-23.4-30.07-33.9-18.25-17.73-37.53-34.39-56.31-51.44-17.12,17-38.69,35.75-56.95,57.35-12.09,14.3-24.2,28-39,39.28a64.71,64.71,0,0,1-12,7.72c-3.26,1.48-7.19,1.48-10.82,2.14l-2.32-2.7c2.87-5,4.95-10.69,8.74-14.82,17.63-19.17,35.3-38.32,53.79-56.65C637.23,402.67,654.57,387.7,671.41,372.23Z" transform="translate(-547.22 -257.11)"/></svg>